<svg width="433" height="84" viewBox="0 0 433 84" fill="none" xmlns="http://www.w3.org/2000/svg">
<path d="M118.703 57.4347C121.131 55.0024 121.102 51.1053 118.671 48.6849L74.3919 4.59802L55.7953 23.11C53.7221 25.1735 50.5483 25.4735 48.1556 24.0091L48.0314 24.1326L100.09 75.9661L118.703 57.4347Z" fill="white"/>
<path d="M67.2877 57.4525L48.6891 75.9705L0 27.4931L22.9905 4.60217L67.2877 48.7081C69.713 51.1226 69.713 55.0375 67.2877 57.4525Z" fill="white"/>
<path d="M148.774 27.4929L125.794 50.3742L99.4245 24.1371L99.5479 24.0136C101.941 25.4779 105.114 25.1782 107.188 23.1141L125.785 4.60217L148.774 27.4929Z" fill="white"/>
<path d="M217.258 25.5706H222.513L217.094 56.8236H210.579C208.316 43.1266 207.038 34.9917 206.746 32.4191C206.381 35.4629 205.085 43.5978 202.859 56.8236H196.399L190.815 25.5706H196.18L199.793 50.9535L204.118 25.5706H209.319L213.644 51.0078L217.258 25.5706ZM239.674 33.6692C239.674 30.8792 238.268 29.4841 235.458 29.4841C232.648 29.4841 231.243 30.8792 231.243 33.6692V48.725C231.243 51.515 232.648 52.9102 235.458 52.9102C238.268 52.9102 239.674 51.515 239.674 48.725V33.6692ZM226.151 33.5605C226.151 30.9516 226.918 28.8862 228.451 27.3643C229.983 25.8061 232.319 25.0271 235.458 25.0271C238.597 25.0271 240.933 25.8061 242.466 27.3643C244.035 28.8862 244.82 30.9516 244.82 33.5605V48.8337C244.82 51.4426 244.035 53.5261 242.466 55.0843C240.933 56.6062 238.597 57.3671 235.458 57.3671C232.319 57.3671 229.983 56.6062 228.451 55.0843C226.918 53.5261 226.151 51.4426 226.151 48.8337V33.5605ZM255.953 26.9838C258.287 25.9692 260.459 25.4619 262.468 25.4619C264.511 25.4619 266.171 26.0779 267.45 27.3099C268.764 28.5057 269.421 30.245 269.421 32.5278V56.8236H264.165V33.3975C264.165 31.2597 263.087 30.1906 260.935 30.1906C259.365 30.1906 257.777 30.5892 256.172 31.3864V56.8236H251.026V25.5706H255.953V26.9838ZM288.694 30.1906H284.971C282.015 30.1906 280.537 31.5675 280.537 34.3215V48.725C280.537 51.1528 281.741 52.3666 284.15 52.3666C286.086 52.3666 287.599 51.8594 288.694 50.8448V30.1906ZM288.694 17.2546H293.895V56.8236H288.804V54.8669C287.308 56.2801 285.337 56.9866 282.891 56.9866C280.447 56.9866 278.586 56.3344 277.307 55.0299C276.03 53.6892 275.39 51.7868 275.39 49.3229V34.1584C275.39 31.4771 276.177 29.3754 277.745 27.8535C279.315 26.3316 281.505 25.5706 284.314 25.5706H288.694V17.2546ZM300.091 48.5619V33.5605C300.091 30.9516 300.858 28.8862 302.391 27.3643C303.924 25.8061 306.26 25.0271 309.398 25.0271C312.536 25.0271 314.856 25.8061 316.351 27.3643C317.847 28.8862 318.596 30.9516 318.596 33.5605V43.5071H305.128V48.2902C305.128 49.7397 305.566 50.8084 306.442 51.497C307.355 52.1856 308.923 52.5297 311.15 52.5297C313.412 52.5297 315.602 52.2036 317.72 51.5513V56.2257C315.53 56.8055 313.193 57.0954 310.712 57.0954C303.633 57.0954 300.091 54.251 300.091 48.5619ZM305.128 39.3763H313.723V33.6149C313.723 30.7885 312.283 29.3754 309.398 29.3754C306.552 29.3754 305.128 30.7885 305.128 33.6149V39.3763ZM322.461 33.1801C322.461 30.5348 323.227 28.5601 324.76 27.2556C326.328 25.9511 328.866 25.2989 332.37 25.2989C334.704 25.2989 336.784 25.5887 338.611 26.1685V30.8429C336.859 30.1906 334.923 29.8645 332.808 29.8645C330.69 29.8645 329.284 30.1543 328.592 30.7342C327.898 31.2777 327.552 32.1837 327.552 33.4518V34.5389C327.552 35.5172 327.751 36.2601 328.154 36.7674C328.555 37.2746 329.321 37.8181 330.454 38.3979L335.107 40.8982C338.245 42.5651 339.815 44.8116 339.815 47.6379V49.0511C339.815 54.414 336.312 57.0954 329.304 57.0954C326.93 57.0954 324.685 56.8236 322.57 56.2801V51.5513C324.431 52.1673 326.475 52.4753 328.702 52.4753C330.964 52.4753 332.514 52.1856 333.355 51.6057C334.231 51.0259 334.669 50.1382 334.669 48.9424V48.0184C334.669 47.1488 334.43 46.4602 333.957 45.953C333.519 45.4095 332.624 44.7936 331.275 44.105L326.84 41.8222C323.919 40.3366 322.461 38.0355 322.461 34.9194V33.1801ZM344.093 33.5605C344.093 28.0528 347.303 25.2989 353.729 25.2989C356.028 25.2989 358.071 25.5526 359.86 26.0598V30.7885C358.034 30.2813 356.172 30.0276 354.276 30.0276C352.415 30.0276 351.101 30.3357 350.334 30.9516C349.603 31.5675 349.239 32.5459 349.239 33.8866V48.5619C349.239 49.9027 349.603 50.8811 350.334 51.497C351.101 52.1129 352.45 52.421 354.386 52.421C356.319 52.421 358.163 52.1312 359.915 51.5513V56.3344C357.797 56.8416 355.734 57.0954 353.729 57.0954C347.303 57.0954 344.093 54.3414 344.093 48.8337V33.5605ZM376.177 25.4076H377.437V30.245H375.794C374.08 30.245 372.201 30.9336 370.155 32.3104V56.8236H365.009V25.5706H369.936V27.8535C370.046 27.7811 370.247 27.6361 370.538 27.4186C370.867 27.2012 371.069 27.0745 371.141 27.0382C371.25 26.9658 371.434 26.8388 371.688 26.6577C371.982 26.4766 372.181 26.3679 372.29 26.3316C372.4 26.2953 372.564 26.2229 372.783 26.1142C373.039 25.9692 373.241 25.8787 373.385 25.8424C373.532 25.8061 373.714 25.7517 373.933 25.6794C374.189 25.5706 374.426 25.5163 374.645 25.5163C375.302 25.4439 375.814 25.4076 376.177 25.4076ZM386.686 19.8636C386.686 21.8565 385.684 22.853 383.675 22.853C381.667 22.853 380.664 21.8565 380.664 19.8636C380.664 17.8344 381.667 16.8198 383.675 16.8198C385.684 16.8198 386.686 17.8344 386.686 19.8636ZM381.102 25.9511H386.248V56.8236H381.102V25.9511ZM406.328 33.3975C406.328 31.2597 405.216 30.1906 402.989 30.1906C401.384 30.1906 399.776 30.5892 398.171 31.3864V52.1492H402.113C404.922 52.1492 406.328 50.8267 406.328 48.1815V33.3975ZM397.952 27.0382C400.07 25.9874 402.205 25.4619 404.357 25.4619C406.547 25.4619 408.282 26.0598 409.558 27.2556C410.872 28.4514 411.529 30.2087 411.529 32.5278V48.725C411.529 51.3339 410.78 53.345 409.285 54.7582C407.824 56.135 405.853 56.8236 403.372 56.8236H398.171V64.9222H393.025V25.5706H397.952V27.0382ZM423.088 19.9723V25.5706H429.439V29.9732H423.088V49.3772C423.088 51.479 424.183 52.5297 426.373 52.5297C427.433 52.5297 428.618 52.3123 429.932 51.8775V56.4975C429.897 56.4975 429.713 56.5338 429.384 56.6062C429.093 56.6786 428.782 56.7512 428.454 56.8236C427.468 57.041 426.52 57.1497 425.607 57.1497C420.498 57.1497 417.942 54.6858 417.942 49.7577V29.9732H414.657V25.5706H418.106L419.639 19.9723H423.088Z" fill="white"/>
</svg>
