<svg width="60" height="29" viewBox="0 0 60 29" fill="none" xmlns="http://www.w3.org/2000/svg">
<path d="M47.7005 21.3863C48.6762 20.4017 48.6644 18.8243 47.6878 17.8447L29.8943 0L22.4212 7.49292C21.5881 8.32822 20.3127 8.44952 19.3512 7.85688L19.3013 7.90685L40.221 28.8871L47.7005 21.3863Z" fill="white"/>
<path d="M27.0394 21.3935L19.5656 28.8889L0 9.26702L9.23867 0.00170898L27.0394 17.854C28.014 18.8313 28.014 20.416 27.0394 21.3935Z" fill="white"/>
<path d="M59.7848 9.26702L50.5501 18.5285L39.9536 7.90869L40.0033 7.85872C40.965 8.45142 42.2402 8.33002 43.0734 7.49463L50.5465 0.00170898L59.7848 9.26702Z" fill="white"/>
</svg>
