<svg width="174" height="30" viewBox="0 0 174 30" fill="none" xmlns="http://www.w3.org/2000/svg">
<path d="M48.3079 22.2474C49.2836 21.2628 49.2718 19.6854 48.2952 18.7058L30.5017 0.861084L23.0286 8.354C22.1955 9.1893 20.9201 9.3106 19.9586 8.71796L19.9087 8.76793L40.8284 29.7482L48.3079 22.2474Z" fill="white"/>
<path d="M27.6468 22.2546L20.173 29.75L0.607422 10.1281L9.84609 0.862793L27.6468 18.7151C28.6214 19.6924 28.6214 21.2771 27.6468 22.2546Z" fill="white"/>
<path d="M60.3922 10.1281L51.1575 19.3896L40.561 8.76977L40.6107 8.7198C41.5724 9.3125 42.8476 9.1911 43.6808 8.35571L51.1539 0.862793L60.3922 10.1281Z" fill="white"/>
<path d="M87.912 9.34998H90.024L87.846 22H85.228C84.3187 16.456 83.8053 13.1633 83.688 12.122C83.5413 13.354 83.0207 16.6467 82.126 22H79.53L77.286 9.34998H79.442L80.894 19.624L82.632 9.34998H84.722L86.46 19.646L87.912 9.34998ZM96.9198 12.628C96.9198 11.4987 96.3551 10.934 95.2258 10.934C94.0965 10.934 93.5318 11.4987 93.5318 12.628V18.722C93.5318 19.8513 94.0965 20.416 95.2258 20.416C96.3551 20.416 96.9198 19.8513 96.9198 18.722V12.628ZM91.4858 12.584C91.4858 11.528 91.7938 10.692 92.4098 10.076C93.0258 9.44528 93.9645 9.12998 95.2258 9.12998C96.4871 9.12998 97.4258 9.44528 98.0418 10.076C98.6725 10.692 98.9878 11.528 98.9878 12.584V18.766C98.9878 19.822 98.6725 20.6653 98.0418 21.296C97.4258 21.912 96.4871 22.22 95.2258 22.22C93.9645 22.22 93.0258 21.912 92.4098 21.296C91.7938 20.6653 91.4858 19.822 91.4858 18.766V12.584ZM103.461 9.92198C104.4 9.51128 105.273 9.30598 106.079 9.30598C106.901 9.30598 107.568 9.55528 108.081 10.054C108.609 10.538 108.873 11.242 108.873 12.166V22H106.761V12.518C106.761 11.6527 106.329 11.22 105.463 11.22C104.833 11.22 104.195 11.3813 103.549 11.704V22H101.481V9.34998H103.461V9.92198ZM116.619 11.22H115.123C113.935 11.22 113.341 11.7773 113.341 12.892V18.722C113.341 19.7047 113.825 20.196 114.793 20.196C115.57 20.196 116.179 19.9907 116.619 19.58V11.22ZM116.619 5.98398H118.709V22H116.663V21.208C116.062 21.78 115.27 22.066 114.287 22.066C113.304 22.066 112.556 21.802 112.043 21.274C111.53 20.7313 111.273 19.9613 111.273 18.964V12.826C111.273 11.7407 111.588 10.89 112.219 10.274C112.85 9.65798 113.73 9.34998 114.859 9.34998H116.619V5.98398ZM121.199 18.656V12.584C121.199 11.528 121.507 10.692 122.123 10.076C122.739 9.44528 123.677 9.12998 124.939 9.12998C126.2 9.12998 127.131 9.44528 127.733 10.076C128.334 10.692 128.635 11.528 128.635 12.584V16.61H123.223V18.546C123.223 19.1327 123.399 19.5653 123.751 19.844C124.117 20.1227 124.748 20.262 125.643 20.262C126.552 20.262 127.432 20.13 128.283 19.866V21.758C127.403 21.9927 126.464 22.11 125.467 22.11C122.621 22.11 121.199 20.9587 121.199 18.656ZM123.223 14.938H126.677V12.606C126.677 11.462 126.097 10.89 124.939 10.89C123.795 10.89 123.223 11.462 123.223 12.606V14.938ZM130.187 12.43C130.187 11.3593 130.495 10.56 131.111 10.032C131.742 9.50398 132.761 9.23998 134.169 9.23998C135.108 9.23998 135.944 9.35728 136.677 9.59198V11.484C135.973 11.22 135.196 11.088 134.345 11.088C133.495 11.088 132.93 11.2053 132.651 11.44C132.373 11.66 132.233 12.0267 132.233 12.54V12.98C132.233 13.376 132.314 13.6767 132.475 13.882C132.637 14.0873 132.945 14.3073 133.399 14.542L135.269 15.554C136.531 16.2287 137.161 17.138 137.161 18.282V18.854C137.161 21.0247 135.753 22.11 132.937 22.11C131.984 22.11 131.082 22 130.231 21.78V19.866C130.979 20.1153 131.801 20.24 132.695 20.24C133.605 20.24 134.228 20.1227 134.565 19.888C134.917 19.6533 135.093 19.294 135.093 18.81V18.436C135.093 18.084 134.998 17.8053 134.807 17.6C134.631 17.38 134.272 17.1307 133.729 16.852L131.947 15.928C130.774 15.3267 130.187 14.3953 130.187 13.134V12.43ZM138.88 12.584C138.88 10.3547 140.171 9.23998 142.752 9.23998C143.676 9.23998 144.498 9.34268 145.216 9.54798V11.462C144.483 11.2567 143.735 11.154 142.972 11.154C142.224 11.154 141.696 11.2787 141.388 11.528C141.095 11.7773 140.948 12.1733 140.948 12.716V18.656C140.948 19.1987 141.095 19.5947 141.388 19.844C141.696 20.0933 142.239 20.218 143.016 20.218C143.794 20.218 144.534 20.1007 145.238 19.866V21.802C144.388 22.0073 143.559 22.11 142.752 22.11C140.171 22.11 138.88 20.9953 138.88 18.766V12.584ZM151.774 9.28398H152.28V11.242H151.62C150.931 11.242 150.175 11.5207 149.354 12.078V22H147.286V9.34998H149.266V10.274C149.31 10.2447 149.391 10.186 149.508 10.098C149.64 10.01 149.721 9.95868 149.75 9.94398C149.794 9.91468 149.867 9.86328 149.97 9.78998C150.087 9.71668 150.168 9.67268 150.212 9.65798C150.256 9.64328 150.322 9.61398 150.41 9.56998C150.513 9.51128 150.593 9.47468 150.652 9.45998C150.711 9.44528 150.784 9.42328 150.872 9.39398C150.975 9.34998 151.07 9.32798 151.158 9.32798C151.422 9.29868 151.627 9.28398 151.774 9.28398ZM155.997 7.03998C155.997 7.84665 155.593 8.24998 154.787 8.24998C153.98 8.24998 153.577 7.84665 153.577 7.03998C153.577 6.21865 153.98 5.80798 154.787 5.80798C155.593 5.80798 155.997 6.21865 155.997 7.03998ZM153.753 9.50398H155.821V22H153.753V9.50398ZM163.89 12.518C163.89 11.6527 163.442 11.22 162.548 11.22C161.902 11.22 161.257 11.3813 160.612 11.704V20.108H162.196C163.325 20.108 163.89 19.5727 163.89 18.502V12.518ZM160.524 9.94398C161.374 9.51868 162.232 9.30598 163.098 9.30598C163.978 9.30598 164.674 9.54798 165.188 10.032C165.716 10.516 165.98 11.2273 165.98 12.166V18.722C165.98 19.778 165.679 20.592 165.078 21.164C164.491 21.7213 163.699 22 162.702 22H160.612V25.278H158.544V9.34998H160.524V9.94398ZM170.625 7.08398V9.34998H173.177V11.132H170.625V18.986C170.625 19.8367 171.065 20.262 171.945 20.262C172.37 20.262 172.847 20.174 173.375 19.998V21.868C173.36 21.868 173.287 21.8827 173.155 21.912C173.038 21.9413 172.913 21.9707 172.781 22C172.385 22.088 172.004 22.132 171.637 22.132C169.584 22.132 168.557 21.1347 168.557 19.14V11.132H167.237V9.34998H168.623L169.239 7.08398H170.625Z" fill="white"/>
</svg>
