<svg width="71" height="71" viewBox="0 0 71 71" fill="none" xmlns="http://www.w3.org/2000/svg">
<rect width="71" height="71" rx="19" fill="#006DFF"/>
<path d="M48.1587 41.1905C48.8522 40.4937 48.8439 39.3774 48.1497 38.6841L35.5013 26.0555L30.1891 31.3582C29.5969 31.9494 28.6903 32.0352 28.0068 31.6158L27.9713 31.6512L42.8419 46.4987L48.1587 41.1905Z" fill="white"/>
<path d="M33.472 41.1956L28.1593 46.5L14.2512 32.6138L20.8185 26.0568L33.472 38.6907C34.1648 39.3824 34.1648 40.5038 33.472 41.1956Z" fill="white"/>
<path d="M56.7487 32.6137L50.1843 39.168L42.6519 31.6525L42.6871 31.6171C43.3708 32.0365 44.2772 31.9507 44.8695 31.3594L50.1817 26.0568L56.7487 32.6137Z" fill="white"/>
</svg>
