<svg width="369" height="466" viewBox="0 0 369 466" fill="none" xmlns="http://www.w3.org/2000/svg">
<rect width="369" height="466" fill="#006DFF"/>
<rect width="369" height="12" fill="white"/>
<path d="M41.116 54.66H45.094L42.728 70H38.334L37.736 64.514L37.19 59.964L35.994 70H31.626L29.13 54.66H33.212L34.018 64.93L35.37 54.66H38.932L40.362 64.982L41.116 54.66ZM52.1666 58.716C52.1666 58.0573 51.8026 57.728 51.0746 57.728C50.3466 57.728 49.9826 58.0573 49.9826 58.716V65.944C49.9826 66.6027 50.3466 66.932 51.0746 66.932C51.8026 66.932 52.1666 66.6027 52.1666 65.944V58.716ZM46.1346 58.586C46.1346 57.2687 46.5419 56.246 47.3566 55.518C48.1886 54.7727 49.4279 54.4 51.0746 54.4C52.7213 54.4 53.9519 54.7727 54.7666 55.518C55.5986 56.246 56.0146 57.2687 56.0146 58.586V66.074C56.0146 67.3913 55.5986 68.4227 54.7666 69.168C53.9519 69.896 52.7213 70.26 51.0746 70.26C49.4279 70.26 48.1886 69.896 47.3566 69.168C46.5419 68.4227 46.1346 67.3913 46.1346 66.074V58.586ZM61.7917 55.336C62.7104 54.8333 63.6637 54.582 64.6517 54.582C65.6397 54.582 66.4284 54.8593 67.0177 55.414C67.6244 55.9513 67.9277 56.766 67.9277 57.858V70H63.9497V58.82C63.9497 58.404 63.7244 58.196 63.2737 58.196C62.823 58.196 62.407 58.3087 62.0257 58.534V70H58.0997V54.66H61.7917V55.336ZM75.8808 58.144H75.0228C74.2082 58.144 73.8008 58.5773 73.8008 59.444V65.866C73.8008 66.3167 74.0608 66.542 74.5808 66.542C75.1008 66.542 75.5342 66.438 75.8808 66.23V58.144ZM75.8548 50.578H79.8068V70H75.9848V68.908C75.3608 69.7053 74.4682 70.104 73.3068 70.104C72.1628 70.104 71.3048 69.792 70.7328 69.168C70.1608 68.544 69.8748 67.6773 69.8748 66.568V59.314C69.8748 57.858 70.2735 56.7227 71.0708 55.908C71.8682 55.076 73.0815 54.66 74.7108 54.66H75.8548V50.578ZM81.8846 65.632V58.586C81.8846 57.2687 82.2919 56.246 83.1066 55.518C83.9213 54.7727 85.1519 54.4 86.7986 54.4C89.9706 54.4 91.5566 55.7953 91.5566 58.586V63.864H85.6546V65.32C85.6546 65.84 85.7933 66.2127 86.0706 66.438C86.3653 66.646 86.9979 66.75 87.9686 66.75C88.9566 66.75 90.0313 66.5767 91.1926 66.23V69.662C89.9793 69.9913 88.6793 70.156 87.2926 70.156C83.6873 70.156 81.8846 68.648 81.8846 65.632ZM85.6546 60.874H87.9426V58.638C87.9426 57.9793 87.5613 57.65 86.7986 57.65C86.0359 57.65 85.6546 57.9793 85.6546 58.638V60.874ZM99.9973 54.582H100.439V58.196H99.8413C98.8706 58.196 98.0213 58.3693 97.2933 58.716V70H93.3673V54.66H97.0593V55.7C97.9433 55.1627 98.5586 54.842 98.9053 54.738C99.2693 54.634 99.6333 54.582 99.9973 54.582ZM101.148 58.716C101.148 57.3293 101.564 56.2893 102.396 55.596C103.246 54.8853 104.606 54.53 106.478 54.53C107.761 54.53 108.818 54.66 109.65 54.92V58.378C108.87 58.118 108.012 57.988 107.076 57.988C106.158 57.988 105.568 58.066 105.308 58.222C105.066 58.378 104.944 58.6293 104.944 58.976V59.184C104.944 59.392 105.005 59.574 105.126 59.73C105.265 59.8687 105.551 60.0853 105.984 60.38L108.09 61.784C108.749 62.2173 109.252 62.694 109.598 63.214C109.962 63.734 110.144 64.384 110.144 65.164V65.814C110.144 68.6913 108.255 70.13 104.476 70.13C103.159 70.13 102.032 70.0173 101.096 69.792V66.282C101.911 66.5247 102.812 66.646 103.8 66.646C104.788 66.646 105.438 66.568 105.75 66.412C106.08 66.2387 106.244 65.9873 106.244 65.658V65.424C106.244 65.164 106.158 64.956 105.984 64.8C105.776 64.592 104.78 63.8987 102.994 62.72C101.764 61.888 101.148 60.7787 101.148 59.392V58.716ZM111.566 59.054C111.566 56.038 113.265 54.53 116.662 54.53C117.876 54.53 118.959 54.66 119.912 54.92V58.534C118.994 58.2567 118.17 58.118 117.442 58.118C116.732 58.118 116.229 58.2133 115.934 58.404C115.64 58.5773 115.492 58.9067 115.492 59.392V65.268C115.492 65.7533 115.64 66.0913 115.934 66.282C116.229 66.4553 116.732 66.542 117.442 66.542C118.17 66.542 118.994 66.4033 119.912 66.126V69.74C118.959 70 117.876 70.13 116.662 70.13C113.265 70.13 111.566 68.622 111.566 65.606V59.054ZM128.232 54.582H128.674V58.196H128.076C127.105 58.196 126.256 58.3693 125.528 58.716V70H121.602V54.66H125.294V55.7C126.178 55.1627 126.793 54.842 127.14 54.738C127.504 54.634 127.868 54.582 128.232 54.582ZM131.931 54.218C130.492 54.218 129.773 53.542 129.773 52.19C129.773 50.8207 130.492 50.136 131.931 50.136C133.387 50.136 134.115 50.8207 134.115 52.19C134.115 53.542 133.387 54.218 131.931 54.218ZM129.981 55.076H133.907V70H129.981V55.076ZM142.232 58.82C142.232 58.404 141.981 58.196 141.478 58.196C140.993 58.196 140.559 58.3087 140.178 58.534V66.386H141.218C141.894 66.386 142.232 66.1087 142.232 65.554V58.82ZM139.944 55.336C140.863 54.8333 141.833 54.582 142.856 54.582C143.896 54.582 144.711 54.8593 145.3 55.414C145.907 55.9513 146.21 56.766 146.21 57.858V66.178C146.21 67.478 145.846 68.44 145.118 69.064C144.407 69.688 143.445 70 142.232 70H140.178V73.874H136.252V54.66H139.944V55.336ZM153.539 66.698C154.077 66.698 154.571 66.5767 155.021 66.334V69.818C154.432 70.0953 153.661 70.234 152.707 70.234C151.234 70.234 150.185 69.8873 149.561 69.194C148.937 68.5007 148.625 67.4953 148.625 66.178V57.962H147.247V54.66H148.807L150.003 52.008H152.551V54.66H154.865V57.962H152.551V65.762C152.551 66.386 152.881 66.698 153.539 66.698ZM168.068 55.206H169.94L166.664 70H164.064L160.788 55.206H162.686L164.116 61.992L165.39 68.7C165.91 65.8227 166.802 61.3247 168.068 55.206ZM175.809 52.528V70H173.937V54.426L170.661 56.818V54.738L173.703 52.528H175.809ZM179.561 70.156C178.816 70.156 178.443 69.766 178.443 68.986C178.443 68.1887 178.816 67.79 179.561 67.79C180.324 67.79 180.705 68.1887 180.705 68.986C180.705 69.766 180.324 70.156 179.561 70.156ZM189.763 56.428C189.763 54.764 188.957 53.932 187.345 53.932C185.733 53.932 184.927 54.764 184.927 56.428V66.1C184.927 67.764 185.733 68.596 187.345 68.596C188.957 68.596 189.763 67.764 189.763 66.1V56.428ZM183.081 56.402C183.081 55.154 183.428 54.1573 184.121 53.412C184.814 52.6493 185.88 52.268 187.319 52.268C188.775 52.268 189.85 52.6493 190.543 53.412C191.254 54.1573 191.609 55.154 191.609 56.402V66.152C191.609 67.4 191.254 68.3967 190.543 69.142C189.85 69.8873 188.775 70.26 187.319 70.26C185.88 70.26 184.814 69.8873 184.121 69.142C183.428 68.3967 183.081 67.4 183.081 66.152V56.402ZM197.752 52.398C200.82 52.398 202.354 53.6287 202.354 56.09V57.598C202.337 58.5687 202.181 59.3487 201.886 59.938C201.592 60.5273 201.072 61.0733 200.326 61.576L198.324 63.006C197.458 63.5953 196.877 64.098 196.582 64.514C196.288 64.93 196.14 65.528 196.14 66.308V68.284H202.406V70H194.268V66.23C194.268 65.138 194.494 64.28 194.944 63.656C195.395 63.0147 196.097 62.3733 197.05 61.732L199.13 60.25C199.668 59.9033 200.032 59.522 200.222 59.106C200.413 58.69 200.508 58.1353 200.508 57.442V56.194C200.508 55.5007 200.318 54.9807 199.936 54.634C199.555 54.2873 198.792 54.114 197.648 54.114C196.522 54.114 195.49 54.296 194.554 54.66V52.866C195.456 52.554 196.522 52.398 197.752 52.398Z" fill="white"/>
<line x1="317.121" y1="52" x2="334.5" y2="69.3787" stroke="white" stroke-width="3" stroke-linecap="round"/>
<line x1="317.5" y1="69.3787" x2="334.879" y2="52" stroke="white" stroke-width="3" stroke-linecap="round"/>
<rect x="181" y="401" width="156" height="39" fill="white"/>
<path d="M221.872 416.448C221.872 415.232 221.24 414.624 219.976 414.624H217.744V427.032H219.976C221.24 427.032 221.872 426.4 221.872 425.136V416.448ZM215.488 412.728H220.192C221.472 412.728 222.448 413.048 223.12 413.688C223.792 414.328 224.128 415.224 224.128 416.376V425.256C224.128 426.424 223.808 427.344 223.168 428.016C222.544 428.672 221.584 429 220.288 429H215.488V412.728ZM233.024 416.52C233.024 415.208 232.328 414.552 230.936 414.552C229.544 414.552 228.848 415.208 228.848 416.52V425.208C228.848 426.536 229.544 427.2 230.936 427.2C232.328 427.2 233.024 426.536 233.024 425.208V416.52ZM226.592 416.448C226.592 415.248 226.952 414.288 227.672 413.568C228.408 412.848 229.488 412.488 230.912 412.488C232.352 412.488 233.44 412.856 234.176 413.592C234.912 414.312 235.28 415.264 235.28 416.448V425.304C235.28 426.488 234.912 427.44 234.176 428.16C233.44 428.88 232.36 429.24 230.936 429.24C229.512 429.24 228.432 428.88 227.696 428.16C226.96 427.44 226.592 426.488 226.592 425.304V416.448ZM248.571 412.728H250.635L248.115 429H245.715C244.627 422.328 243.987 418.064 243.795 416.208C243.651 417.968 243.435 419.688 243.147 421.368L241.899 429H239.403L236.907 412.728H238.995L240.315 421.128L240.867 425.496C241.043 424.024 241.235 422.568 241.443 421.128L242.739 412.728H244.851L246.123 421.128L246.699 425.424C246.875 423.76 247.051 422.328 247.227 421.128L248.571 412.728ZM259.504 412.728H261.736V429H259.336C256.824 422.584 255.184 418.328 254.416 416.232C254.416 416.408 254.448 416.776 254.512 417.336C254.64 418.728 254.704 420.272 254.704 421.968V429H252.496V412.728H254.92C257.144 418.36 258.496 421.848 258.976 423.192C259.456 424.536 259.728 425.296 259.792 425.472C259.792 425.328 259.744 424.624 259.648 423.36C259.568 422.08 259.52 420.848 259.504 419.664V412.728ZM264.707 412.728H266.987V427.056H271.739V429H264.707V412.728ZM279.547 416.52C279.547 415.208 278.851 414.552 277.459 414.552C276.067 414.552 275.371 415.208 275.371 416.52V425.208C275.371 426.536 276.067 427.2 277.459 427.2C278.851 427.2 279.547 426.536 279.547 425.208V416.52ZM273.115 416.448C273.115 415.248 273.475 414.288 274.195 413.568C274.931 412.848 276.011 412.488 277.435 412.488C278.875 412.488 279.963 412.856 280.699 413.592C281.435 414.312 281.803 415.264 281.803 416.448V425.304C281.803 426.488 281.435 427.44 280.699 428.16C279.963 428.88 278.883 429.24 277.459 429.24C276.035 429.24 274.955 428.88 274.219 428.16C273.483 427.44 273.115 426.488 273.115 425.304V416.448ZM291.375 429L290.487 424.68H286.455L285.567 429H283.359L286.911 412.728H290.079L293.583 429H291.375ZM286.839 422.736H290.079L288.447 414.84L286.839 422.736ZM301.794 416.448C301.794 415.232 301.162 414.624 299.898 414.624H297.666V427.032H299.898C301.162 427.032 301.794 426.4 301.794 425.136V416.448ZM295.41 412.728H300.114C301.394 412.728 302.37 413.048 303.042 413.688C303.714 414.328 304.05 415.224 304.05 416.376V425.256C304.05 426.424 303.73 427.344 303.09 428.016C302.466 428.672 301.506 429 300.21 429H295.41V412.728Z" fill="#006DFF"/>
<rect x="29" y="109" width="22" height="21" fill="white"/>
<path d="M37.1136 126.448L31.2636 120.598C30.9122 120.246 30.9122 119.676 31.2636 119.325L32.5364 118.052C32.8878 117.701 33.4577 117.701 33.8092 118.052L37.75 121.993L46.1908 113.552C46.5423 113.201 47.1122 113.201 47.4636 113.552L48.7364 114.825C49.0879 115.176 49.0879 115.746 48.7364 116.098L38.3864 126.448C38.0349 126.799 37.4651 126.799 37.1136 126.448Z" fill="#006DFF"/>
<path d="M71.49 115.538C71.49 114.922 71.1747 114.614 70.544 114.614H69.312V119.74H70.544C71.1747 119.74 71.49 119.432 71.49 118.816V115.538ZM65.99 111.754H70.962C72.15 111.754 73.0813 112.04 73.756 112.612C74.4453 113.184 74.79 114.027 74.79 115.142V119.212C74.79 120.327 74.4453 121.17 73.756 121.742C73.0813 122.314 72.15 122.6 70.962 122.6H69.312V127H65.99V111.754ZM81.934 113.954H82.308V117.012H81.802C80.9807 117.012 80.262 117.159 79.646 117.452V127H76.324V114.02H79.448V114.9C80.196 114.445 80.7167 114.174 81.01 114.086C81.318 113.998 81.626 113.954 81.934 113.954ZM83.1938 123.304V117.342C83.1938 116.227 83.5385 115.362 84.2278 114.746C84.9172 114.115 85.9585 113.8 87.3518 113.8C90.0358 113.8 91.3778 114.981 91.3778 117.342V121.808H86.3838V123.04C86.3838 123.48 86.5012 123.795 86.7358 123.986C86.9852 124.162 87.5205 124.25 88.3418 124.25C89.1778 124.25 90.0872 124.103 91.0698 123.81V126.714C90.0432 126.993 88.9432 127.132 87.7698 127.132C84.7192 127.132 83.1938 125.856 83.1938 123.304ZM86.3838 119.278H88.3198V117.386C88.3198 116.829 87.9972 116.55 87.3518 116.55C86.7065 116.55 86.3838 116.829 86.3838 117.386V119.278ZM100.522 114.702C101.475 114.203 102.407 113.954 103.316 113.954C104.24 113.954 104.951 114.189 105.45 114.658C105.963 115.113 106.22 115.802 106.22 116.726V127H102.854V117.54C102.854 117.188 102.656 117.012 102.26 117.012C101.879 117.012 101.527 117.107 101.204 117.298C101.219 117.327 101.226 117.401 101.226 117.518V127H97.8599V117.54C97.8599 117.188 97.6693 117.012 97.2879 117.012C96.9066 117.012 96.5546 117.107 96.2319 117.298V127H92.9099V114.02H96.0339V114.592C96.8113 114.167 97.6253 113.954 98.4759 113.954C99.3413 113.954 100.023 114.203 100.522 114.702ZM109.749 113.646C108.532 113.646 107.923 113.074 107.923 111.93C107.923 110.771 108.532 110.192 109.749 110.192C110.981 110.192 111.597 110.771 111.597 111.93C111.597 113.074 110.981 113.646 109.749 113.646ZM108.099 114.372H111.421V127H108.099V114.372ZM113.186 123.304V117.342C113.186 116.227 113.531 115.362 114.22 114.746C114.909 114.115 115.951 113.8 117.344 113.8C120.028 113.8 121.37 114.981 121.37 117.342V121.808H116.376V123.04C116.376 123.48 116.493 123.795 116.728 123.986C116.977 124.162 117.513 124.25 118.334 124.25C119.17 124.25 120.079 124.103 121.062 123.81V126.714C120.035 126.993 118.935 127.132 117.762 127.132C114.711 127.132 113.186 125.856 113.186 123.304ZM116.376 119.278H118.312V117.386C118.312 116.829 117.989 116.55 117.344 116.55C116.699 116.55 116.376 116.829 116.376 117.386V119.278ZM128.512 113.954H128.886V117.012H128.38C127.559 117.012 126.84 117.159 126.224 117.452V127H122.902V114.02H126.026V114.9C126.774 114.445 127.295 114.174 127.588 114.086C127.896 113.998 128.204 113.954 128.512 113.954ZM129.772 123.304V117.342C129.772 116.227 130.117 115.362 130.806 114.746C131.495 114.115 132.537 113.8 133.93 113.8C136.614 113.8 137.956 114.981 137.956 117.342V121.808H132.962V123.04C132.962 123.48 133.079 123.795 133.314 123.986C133.563 124.162 134.099 124.25 134.92 124.25C135.756 124.25 136.665 124.103 137.648 123.81V126.714C136.621 126.993 135.521 127.132 134.348 127.132C131.297 127.132 129.772 125.856 129.772 123.304ZM132.962 119.278H134.898V117.386C134.898 116.829 134.575 116.55 133.93 116.55C133.285 116.55 132.962 116.829 132.962 117.386V119.278ZM149.07 115.538C149.07 114.922 148.755 114.614 148.124 114.614H146.892V119.74H148.124C148.755 119.74 149.07 119.432 149.07 118.816V115.538ZM143.57 111.754H148.542C149.73 111.754 150.661 112.04 151.336 112.612C152.025 113.184 152.37 114.027 152.37 115.142V119.212C152.37 120.327 152.025 121.17 151.336 121.742C150.661 122.314 149.73 122.6 148.542 122.6H146.892V127H143.57V111.754ZM159.514 113.954H159.888V117.012H159.382C158.561 117.012 157.842 117.159 157.226 117.452V127H153.904V114.02H157.028V114.9C157.776 114.445 158.297 114.174 158.59 114.086C158.898 113.998 159.206 113.954 159.514 113.954ZM165.878 117.452C165.878 116.895 165.57 116.616 164.954 116.616C164.338 116.616 164.03 116.895 164.03 117.452V123.568C164.03 124.125 164.338 124.404 164.954 124.404C165.57 124.404 165.878 124.125 165.878 123.568V117.452ZM160.774 117.342C160.774 116.227 161.119 115.362 161.808 114.746C162.512 114.115 163.561 113.8 164.954 113.8C166.347 113.8 167.389 114.115 168.078 114.746C168.782 115.362 169.134 116.227 169.134 117.342V123.678C169.134 124.793 168.782 125.665 168.078 126.296C167.389 126.912 166.347 127.22 164.954 127.22C163.561 127.22 162.512 126.912 161.808 126.296C161.119 125.665 160.774 124.793 160.774 123.678V117.342Z" fill="white"/>
<rect x="29" y="205" width="22" height="21" fill="white"/>
<path d="M37.1136 222.448L31.2636 216.598C30.9122 216.246 30.9122 215.676 31.2636 215.325L32.5364 214.052C32.8878 213.701 33.4577 213.701 33.8092 214.052L37.75 217.993L46.1908 209.552C46.5423 209.201 47.1122 209.201 47.4636 209.552L48.7364 210.825C49.0879 211.176 49.0879 211.746 48.7364 212.098L38.3864 222.448C38.0349 222.799 37.4651 222.799 37.1136 222.448Z" fill="#006DFF"/>
<path d="M72.502 223L71.864 219.48H68.85L68.256 223H65.11L68.102 207.754H72.7L75.648 223H72.502ZM69.312 216.686H71.38L70.324 210.79L69.312 216.686ZM77.1277 209.866C77.1277 207.387 78.433 206.148 81.0437 206.148C81.381 206.148 81.7843 206.185 82.2537 206.258V208.81C82.019 208.781 81.799 208.766 81.5937 208.766C80.8457 208.766 80.4717 209.118 80.4717 209.822V210.02H82.2537V212.616H80.4717V223H77.1277V212.616H75.8737V210.02H77.1277V209.866ZM87.686 220.206C88.1406 220.206 88.5586 220.103 88.94 219.898V222.846C88.4413 223.081 87.7886 223.198 86.982 223.198C85.7353 223.198 84.848 222.905 84.32 222.318C83.792 221.731 83.528 220.881 83.528 219.766V212.814H82.362V210.02H83.682L84.694 207.776H86.85V210.02H88.808V212.814H86.85V219.414C86.85 219.942 87.1286 220.206 87.686 220.206ZM90.0473 219.304V213.342C90.0473 212.227 90.392 211.362 91.0813 210.746C91.7707 210.115 92.812 209.8 94.2053 209.8C96.8893 209.8 98.2313 210.981 98.2313 213.342V217.808H93.2373V219.04C93.2373 219.48 93.3547 219.795 93.5893 219.986C93.8387 220.162 94.374 220.25 95.1953 220.25C96.0313 220.25 96.9407 220.103 97.9233 219.81V222.714C96.8967 222.993 95.7967 223.132 94.6233 223.132C91.5727 223.132 90.0473 221.856 90.0473 219.304ZM93.2373 215.278H95.1733V213.386C95.1733 212.829 94.8507 212.55 94.2053 212.55C93.56 212.55 93.2373 212.829 93.2373 213.386V215.278ZM105.373 209.954H105.747V213.012H105.241C104.42 213.012 103.701 213.159 103.085 213.452V223H99.7634V210.02H102.887V210.9C103.635 210.445 104.156 210.174 104.449 210.086C104.757 209.998 105.065 209.954 105.373 209.954ZM110.935 207.754H118.657V210.614H114.235V213.848H118.063V216.708H114.235V220.14H118.657V223H110.935V207.754ZM120.569 209.866C120.569 207.387 121.874 206.148 124.485 206.148C124.822 206.148 125.226 206.185 125.695 206.258V208.81C125.46 208.781 125.24 208.766 125.035 208.766C124.287 208.766 123.913 209.118 123.913 209.822V210.02H125.695V212.616H123.913V223H120.569V212.616H119.315V210.02H120.569V209.866ZM127.057 209.866C127.057 207.387 128.363 206.148 130.973 206.148C131.311 206.148 131.714 206.185 132.183 206.258V208.81C131.949 208.781 131.729 208.766 131.523 208.766C130.775 208.766 130.401 209.118 130.401 209.822V210.02H132.183V212.616H130.401V223H127.057V212.616H125.803V210.02H127.057V209.866ZM132.952 219.304V213.342C132.952 212.227 133.296 211.362 133.986 210.746C134.675 210.115 135.716 209.8 137.11 209.8C139.794 209.8 141.136 210.981 141.136 213.342V217.808H136.142V219.04C136.142 219.48 136.259 219.795 136.494 219.986C136.743 220.162 137.278 220.25 138.1 220.25C138.936 220.25 139.845 220.103 140.828 219.81V222.714C139.801 222.993 138.701 223.132 137.528 223.132C134.477 223.132 132.952 221.856 132.952 219.304ZM136.142 215.278H138.078V213.386C138.078 212.829 137.755 212.55 137.11 212.55C136.464 212.55 136.142 212.829 136.142 213.386V215.278ZM142.448 213.738C142.448 211.186 143.885 209.91 146.76 209.91C147.786 209.91 148.703 210.02 149.51 210.24V213.298C148.732 213.063 148.036 212.946 147.42 212.946C146.818 212.946 146.393 213.027 146.144 213.188C145.894 213.335 145.77 213.613 145.77 214.024V218.996C145.77 219.407 145.894 219.693 146.144 219.854C146.393 220.001 146.818 220.074 147.42 220.074C148.036 220.074 148.732 219.957 149.51 219.722V222.78C148.703 223 147.786 223.11 146.76 223.11C143.885 223.11 142.448 221.834 142.448 219.282V213.738ZM155.383 220.206C155.838 220.206 156.256 220.103 156.637 219.898V222.846C156.139 223.081 155.486 223.198 154.679 223.198C153.433 223.198 152.545 222.905 152.017 222.318C151.489 221.731 151.225 220.881 151.225 219.766V212.814H150.059V210.02H151.379L152.391 207.776H154.547V210.02H156.505V212.814H154.547V219.414C154.547 219.942 154.826 220.206 155.383 220.206ZM157.459 213.452C157.459 212.279 157.811 211.399 158.515 210.812C159.233 210.211 160.385 209.91 161.969 209.91C163.054 209.91 163.949 210.02 164.653 210.24V213.166C163.993 212.946 163.267 212.836 162.475 212.836C161.697 212.836 161.199 212.902 160.979 213.034C160.773 213.166 160.671 213.379 160.671 213.672V213.848C160.671 214.024 160.722 214.178 160.825 214.31C160.942 214.427 161.184 214.611 161.551 214.86L163.333 216.048C163.89 216.415 164.315 216.818 164.609 217.258C164.917 217.698 165.071 218.248 165.071 218.908V219.458C165.071 221.893 163.472 223.11 160.275 223.11C159.16 223.11 158.207 223.015 157.415 222.824V219.854C158.104 220.059 158.867 220.162 159.703 220.162C160.539 220.162 161.089 220.096 161.353 219.964C161.631 219.817 161.771 219.605 161.771 219.326V219.128C161.771 218.908 161.697 218.732 161.551 218.6C161.375 218.424 160.531 217.837 159.021 216.84C157.979 216.136 157.459 215.197 157.459 214.024V213.452Z" fill="white"/>
<rect x="29" y="253" width="22" height="21" fill="white"/>
<path d="M37.1136 270.448L31.2636 264.598C30.9122 264.246 30.9122 263.676 31.2636 263.325L32.5364 262.052C32.8878 261.701 33.4577 261.701 33.8092 262.052L37.75 265.993L46.1908 257.552C46.5423 257.201 47.1122 257.201 47.4636 257.552L48.7364 258.825C49.0879 259.176 49.0879 259.746 48.7364 260.098L38.3864 270.448C38.0349 270.799 37.4651 270.799 37.1136 270.448Z" fill="#006DFF"/>
<path d="M71.49 259.538C71.49 258.922 71.1747 258.614 70.544 258.614H69.312V263.74H70.544C71.1747 263.74 71.49 263.432 71.49 262.816V259.538ZM65.99 255.754H70.962C72.15 255.754 73.0813 256.04 73.756 256.612C74.4453 257.184 74.79 258.027 74.79 259.142V263.212C74.79 264.327 74.4453 265.17 73.756 265.742C73.0813 266.314 72.15 266.6 70.962 266.6H69.312V271H65.99V255.754ZM76.324 254.566H79.646V258.24C80.2327 258.035 80.856 257.932 81.516 257.932C83.5987 257.932 84.64 258.863 84.64 260.726V271H81.274V261.54C81.274 261.188 81.0613 261.012 80.636 261.012C80.2253 261.012 79.8953 261.085 79.646 261.232V271H76.324V254.566ZM91.3916 261.452C91.3916 260.895 91.0836 260.616 90.4676 260.616C89.8516 260.616 89.5436 260.895 89.5436 261.452V267.568C89.5436 268.125 89.8516 268.404 90.4676 268.404C91.0836 268.404 91.3916 268.125 91.3916 267.568V261.452ZM86.2876 261.342C86.2876 260.227 86.6322 259.362 87.3216 258.746C88.0256 258.115 89.0742 257.8 90.4676 257.8C91.8609 257.8 92.9022 258.115 93.5916 258.746C94.2956 259.362 94.6476 260.227 94.6476 261.342V267.678C94.6476 268.793 94.2956 269.665 93.5916 270.296C92.9022 270.912 91.8609 271.22 90.4676 271.22C89.0742 271.22 88.0256 270.912 87.3216 270.296C86.6322 269.665 86.2876 268.793 86.2876 267.678V261.342ZM100.856 268.206C101.311 268.206 101.729 268.103 102.11 267.898V270.846C101.611 271.081 100.959 271.198 100.152 271.198C98.9052 271.198 98.0179 270.905 97.4899 270.318C96.9619 269.731 96.6979 268.881 96.6979 267.766V260.814H95.5319V258.02H96.8519L97.8639 255.776H100.02V258.02H101.978V260.814H100.02V267.414C100.02 267.942 100.299 268.206 100.856 268.206ZM108.321 261.452C108.321 260.895 108.013 260.616 107.397 260.616C106.781 260.616 106.473 260.895 106.473 261.452V267.568C106.473 268.125 106.781 268.404 107.397 268.404C108.013 268.404 108.321 268.125 108.321 267.568V261.452ZM103.217 261.342C103.217 260.227 103.562 259.362 104.251 258.746C104.955 258.115 106.004 257.8 107.397 257.8C108.791 257.8 109.832 258.115 110.521 258.746C111.225 259.362 111.577 260.227 111.577 261.342V267.678C111.577 268.793 111.225 269.665 110.521 270.296C109.832 270.912 108.791 271.22 107.397 271.22C106.004 271.22 104.955 270.912 104.251 270.296C103.562 269.665 103.217 268.793 103.217 267.678V261.342ZM112.836 261.452C112.836 260.279 113.188 259.399 113.892 258.812C114.61 258.211 115.762 257.91 117.346 257.91C118.431 257.91 119.326 258.02 120.03 258.24V261.166C119.37 260.946 118.644 260.836 117.852 260.836C117.074 260.836 116.576 260.902 116.356 261.034C116.15 261.166 116.048 261.379 116.048 261.672V261.848C116.048 262.024 116.099 262.178 116.202 262.31C116.319 262.427 116.561 262.611 116.928 262.86L118.71 264.048C119.267 264.415 119.692 264.818 119.986 265.258C120.294 265.698 120.448 266.248 120.448 266.908V267.458C120.448 269.893 118.849 271.11 115.652 271.11C114.537 271.11 113.584 271.015 112.792 270.824V267.854C113.481 268.059 114.244 268.162 115.08 268.162C115.916 268.162 116.466 268.096 116.73 267.964C117.008 267.817 117.148 267.605 117.148 267.326V267.128C117.148 266.908 117.074 266.732 116.928 266.6C116.752 266.424 115.908 265.837 114.398 264.84C113.356 264.136 112.836 263.197 112.836 262.024V261.452ZM121.871 254.566H125.193V258.24C125.78 258.035 126.403 257.932 127.063 257.932C129.146 257.932 130.187 258.863 130.187 260.726V271H126.821V261.54C126.821 261.188 126.608 261.012 126.183 261.012C125.772 261.012 125.442 261.085 125.193 261.232V271H121.871V254.566ZM136.938 261.452C136.938 260.895 136.63 260.616 136.014 260.616C135.398 260.616 135.09 260.895 135.09 261.452V267.568C135.09 268.125 135.398 268.404 136.014 268.404C136.63 268.404 136.938 268.125 136.938 267.568V261.452ZM131.834 261.342C131.834 260.227 132.179 259.362 132.868 258.746C133.572 258.115 134.621 257.8 136.014 257.8C137.408 257.8 138.449 258.115 139.138 258.746C139.842 259.362 140.194 260.227 140.194 261.342V267.678C140.194 268.793 139.842 269.665 139.138 270.296C138.449 270.912 137.408 271.22 136.014 271.22C134.621 271.22 133.572 270.912 132.868 270.296C132.179 269.665 131.834 268.793 131.834 267.678V261.342ZM147.019 261.54C147.019 261.188 146.806 261.012 146.381 261.012C145.97 261.012 145.603 261.107 145.281 261.298V267.942H146.161C146.733 267.942 147.019 267.707 147.019 267.238V261.54ZM145.083 258.592C145.86 258.167 146.681 257.954 147.547 257.954C148.427 257.954 149.116 258.189 149.615 258.658C150.128 259.113 150.385 259.802 150.385 260.726V267.766C150.385 268.866 150.077 269.68 149.461 270.208C148.859 270.736 148.045 271 147.019 271H145.281V274.278H141.959V258.02H145.083V258.592Z" fill="white"/>
<rect x="29" y="157" width="22" height="21" fill="white"/>
<path d="M65.99 159.754H69.334V175H65.99V159.754ZM71.3181 158.566H74.6401V175H71.3181V158.566ZM76.6248 158.566H79.9468V175H76.6248V158.566ZM86.9034 162.02H90.2254V175H87.1014V174.406C86.3827 174.802 85.5614 175 84.6374 175C83.7281 175 83.0314 174.751 82.5474 174.252C82.0634 173.753 81.8214 173.035 81.8214 172.096V162.02H85.1874V171.436C85.1874 171.817 85.4001 172.008 85.8254 172.008C86.2507 172.008 86.6101 171.92 86.9034 171.744V162.02ZM91.6949 165.452C91.6949 164.279 92.0469 163.399 92.7509 162.812C93.4696 162.211 94.6209 161.91 96.2049 161.91C97.2903 161.91 98.1849 162.02 98.8889 162.24V165.166C98.2289 164.946 97.5029 164.836 96.7109 164.836C95.9336 164.836 95.4349 164.902 95.2149 165.034C95.0096 165.166 94.9069 165.379 94.9069 165.672V165.848C94.9069 166.024 94.9583 166.178 95.0609 166.31C95.1783 166.427 95.4203 166.611 95.7869 166.86L97.5689 168.048C98.1263 168.415 98.5516 168.818 98.8449 169.258C99.1529 169.698 99.3069 170.248 99.3069 170.908V171.458C99.3069 173.893 97.7083 175.11 94.5109 175.11C93.3963 175.11 92.4429 175.015 91.6509 174.824V171.854C92.3403 172.059 93.1029 172.162 93.9389 172.162C94.7749 172.162 95.3249 172.096 95.5889 171.964C95.8676 171.817 96.0069 171.605 96.0069 171.326V171.128C96.0069 170.908 95.9336 170.732 95.7869 170.6C95.6109 170.424 94.7676 169.837 93.2569 168.84C92.2156 168.136 91.6949 167.197 91.6949 166.024V165.452ZM105.174 172.206C105.629 172.206 106.047 172.103 106.428 171.898V174.846C105.93 175.081 105.277 175.198 104.47 175.198C103.224 175.198 102.336 174.905 101.808 174.318C101.28 173.731 101.016 172.881 101.016 171.766V164.814H99.8502V162.02H101.17L102.182 159.776H104.338V162.02H106.296V164.814H104.338V171.414C104.338 171.942 104.617 172.206 105.174 172.206ZM113.366 161.954H113.74V165.012H113.234C112.412 165.012 111.694 165.159 111.078 165.452V175H107.756V162.02H110.88V162.9C111.628 162.445 112.148 162.174 112.442 162.086C112.75 161.998 113.058 161.954 113.366 161.954ZM117.529 171.238V171.854C117.529 172.353 117.786 172.602 118.299 172.602C118.739 172.602 119.106 172.521 119.399 172.36V169.698L118.387 169.962C118.021 170.065 117.786 170.197 117.683 170.358C117.581 170.519 117.529 170.813 117.529 171.238ZM114.955 162.328C115.762 162.049 116.913 161.91 118.409 161.91C119.905 161.91 120.976 162.24 121.621 162.9C122.267 163.545 122.589 164.528 122.589 165.848V175H119.487V174.054C119.062 174.714 118.321 175.044 117.265 175.044C116.209 175.044 115.447 174.795 114.977 174.296C114.508 173.783 114.273 172.969 114.273 171.854V171.106C114.273 170.123 114.486 169.368 114.911 168.84C115.351 168.312 116.055 167.916 117.023 167.652L119.421 167.036V165.826C119.407 165.445 119.297 165.181 119.091 165.034C118.886 164.873 118.512 164.792 117.969 164.792C116.752 164.792 115.747 164.946 114.955 165.254V162.328ZM128.893 172.206C129.348 172.206 129.766 172.103 130.147 171.898V174.846C129.648 175.081 128.996 175.198 128.189 175.198C126.942 175.198 126.055 174.905 125.527 174.318C124.999 173.731 124.735 172.881 124.735 171.766V164.814H123.569V162.02H124.889L125.901 159.776H128.057V162.02H130.015V164.814H128.057V171.414C128.057 171.942 128.336 172.206 128.893 172.206ZM136.358 165.452C136.358 164.895 136.05 164.616 135.434 164.616C134.818 164.616 134.51 164.895 134.51 165.452V171.568C134.51 172.125 134.818 172.404 135.434 172.404C136.05 172.404 136.358 172.125 136.358 171.568V165.452ZM131.254 165.342C131.254 164.227 131.599 163.362 132.288 162.746C132.992 162.115 134.041 161.8 135.434 161.8C136.828 161.8 137.869 162.115 138.558 162.746C139.262 163.362 139.614 164.227 139.614 165.342V171.678C139.614 172.793 139.262 173.665 138.558 174.296C137.869 174.912 136.828 175.22 135.434 175.22C134.041 175.22 132.992 174.912 132.288 174.296C131.599 173.665 131.254 172.793 131.254 171.678V165.342ZM146.989 161.954H147.363V165.012H146.857C146.035 165.012 145.317 165.159 144.701 165.452V175H141.379V162.02H144.503V162.9C145.251 162.445 145.771 162.174 146.065 162.086C146.373 161.998 146.681 161.954 146.989 161.954Z" fill="white"/>
</svg>
